<?xml version="1.0" encoding="utf-8"?>
<!-- Generator: Adobe Illustrator 24.0.0, SVG Export Plug-In . SVG Version: 6.00 Build 0)  -->
<svg version="1.1" id="Layer_1" xmlns="http://www.w3.org/2000/svg" xmlns:xlink="http://www.w3.org/1999/xlink" x="0px" y="0px"
	 viewBox="0 0 150 33.3" style="enable-background:new 0 0 150 33.3;" xml:space="preserve">
<style type="text/css">
	.st0{fill:#FFFFFF;}
</style>
<g>
	<path class="st0" d="M57.5,7.8c4.8,0,8.6,3.7,8.6,8.5c0,2.1-0.8,4-2,5.5l2,1.9l-1.4,1.5l-1.9-1.9c-1.4,1.2-3.3,1.8-5.3,1.8
		c-4.8,0-8.5-3.8-8.5-8.7C49,11.5,52.7,7.8,57.5,7.8z M57.5,22.9c1.3,0,2.6-0.4,3.6-1.2l-2-1.9l1.4-1.5l1.9,1.9
		c0.8-1,1.2-2.4,1.2-3.9c0-3.7-2.7-6.4-6.2-6.4c-3.4,0-6.1,2.7-6.1,6.4C51.4,20.1,54.1,22.9,57.5,22.9z"/>
	<path class="st0" d="M71.4,8.1h2.3v10.8c0,2.6,1.7,4,4.2,4c2.6,0,4.3-1.5,4.3-4.1V8.1h2.3v10.8c0,3.7-2.7,6.2-6.6,6.2
		c-3.9,0-6.6-2.5-6.6-6.2V8.1z"/>
	<path class="st0" d="M90.8,8.1h2.3v16.7h-2.3V8.1z"/>
	<path class="st0" d="M99.5,8.1h2.3v14.6h7.5v2h-9.8V8.1z"/>
	<path class="st0" d="M113.4,8.1h2.3v16.7h-2.3V8.1z"/>
	<path class="st0" d="M125.7,10.1H120v-2h13.8v2H128v14.6h-2.3V10.1z"/>
	<path class="st0" d="M142.1,17.7l-5.6-9.6h2.6l3.1,5.5c0.5,0.9,1,2.1,1,2.1h0c0,0,0.5-1.2,1-2.1l3-5.5h2.6l-5.6,9.6v7.1h-2.3V17.7z
		"/>
</g>
<path class="st0" d="M23.1,33.3c-2.3,0-4-0.6-5.1-1.8c-0.8-0.8-1.2-1.9-1.2-2.9c0-1,0.4-2,1.2-2.8c1.3-1.4,3.6-2.2,6.1-2.2
	c0.2,0,4.2,0,7.7,1.9c1.7-2.4,2.6-5.3,2.6-8.3c0-3.5-1.3-6.9-3.9-9.8c-2.9-3.3-7.2-5.2-12.1-5.2c-4.4,0-8.8,1.8-11.8,4.8
	C3.9,10,2.5,13.5,2.5,17.5c0,4,1.3,7.4,4,10c2.3,2.3,4.7,3.1,4.7,3.1c0.6,0.2,1,0.9,0.8,1.6c-0.2,0.6-0.9,1-1.6,0.8
	c-0.1,0-3-1-5.7-3.7C1.6,26.2,0,22.1,0,17.5c0-4.6,1.7-8.7,4.9-11.9C8.4,2,13.3,0,18.4,0C24,0,29,2.1,32.4,6
	c2.9,3.3,4.5,7.3,4.5,11.4c0,3.4-1,6.7-2.9,9.4c3.8,2,6.1,3.1,8,3.1c1.8,0,3.6-0.6,5-1.7c0.5-0.4,1.3-0.3,1.7,0.3
	c0.4,0.5,0.3,1.3-0.3,1.7c-1.9,1.4-4.2,2.1-6.5,2.1c-2.5,0-5.1-1.2-9.6-3.6c-0.2,0.2-0.3,0.4-0.5,0.6C29.4,31.9,26.2,33.3,23.1,33.3
	z M24.1,26.2c-1.9,0-3.5,0.5-4.4,1.4c-0.3,0.3-0.5,0.7-0.5,1.1c0,0.4,0.2,0.8,0.5,1.2c0.6,0.7,1.8,1,3.3,1c2.5,0,5-1.1,7.1-3.2
	c0,0,0,0,0,0C27.3,26.2,24.1,26.2,24.1,26.2z"/>
</svg>
